<svg width="31" height="29" viewBox="0 0 31 29" fill="none" xmlns="http://www.w3.org/2000/svg">
<path d="M2.78159 15.5661L4.80945 17.5939C5.19798 17.9824 5.82721 17.9847 6.21853 17.599L6.53592 17.2861C7.16793 16.6632 8.23791 17.1109 8.23791 17.9983V25.1503C8.23791 25.7026 8.68562 26.1503 9.23791 26.1503H11.9976C12.5499 26.1503 12.9976 25.7026 12.9976 25.1503V20.9718C12.9976 20.4195 13.4453 19.9718 13.9976 19.9718H16.0045C16.5568 19.9718 17.0045 20.4195 17.0045 20.9718V25.1503C17.0045 25.7026 17.4522 26.1503 18.0045 26.1503H20.8343C21.3865 26.1503 21.8343 25.7026 21.8343 25.1503V17.9765C21.8343 17.0856 22.9114 16.6394 23.5414 17.2694L23.8905 17.6185C24.2811 18.0091 24.9142 18.0091 25.3048 17.6185L27.2185 15.7048C27.609 15.3143 27.609 14.6811 27.2185 14.2906L15.6378 2.70991C15.2473 2.31939 14.6141 2.31939 14.2236 2.70991L2.78158 14.1519C2.39105 14.5424 2.39106 15.1756 2.78159 15.5661Z" stroke="white"/>
</svg>
