<svg width="31" height="29" viewBox="0 0 31 29" fill="none" xmlns="http://www.w3.org/2000/svg">
<path d="M3.76084 15.5887L5.78869 17.6164C6.17723 18.005 6.80646 18.0072 7.19778 17.6215L7.51516 17.3087C8.14718 16.6857 9.21716 17.1334 9.21716 18.0209V25.1728C9.21716 25.7251 9.66487 26.1728 10.2172 26.1728H12.9768C13.5291 26.1728 13.9768 25.7251 13.9768 25.1728V20.9943C13.9768 20.442 14.4246 19.9943 14.9768 19.9943H16.9838C17.5361 19.9943 17.9838 20.442 17.9838 20.9943V25.1728C17.9838 25.7251 18.4315 26.1728 18.9838 26.1728H21.8135C22.3658 26.1728 22.8135 25.7251 22.8135 25.1728V17.999C22.8135 17.1081 23.8907 16.6619 24.5206 17.2919L24.8698 17.6411C25.2603 18.0316 25.8935 18.0316 26.284 17.6411L28.1977 15.7273C28.5883 15.3368 28.5883 14.7036 28.1977 14.3131L16.617 2.73244C16.2265 2.34191 15.5934 2.34191 15.2028 2.73244L3.76083 14.1744C3.3703 14.565 3.37031 15.1981 3.76084 15.5887Z" fill="white" stroke="white"/>
</svg>
