<svg width="31" height="31" viewBox="0 0 31 31" fill="none" xmlns="http://www.w3.org/2000/svg">
<line x1="15.0657" y1="11.5645" x2="15.0657" y2="6.56445" stroke="#BA3D3D" stroke-width="2" stroke-linecap="round"/>
<line x1="5.13379" y1="15.5767" x2="23.1338" y2="15.5767" stroke="#BA3D3D" stroke-width="2" stroke-linecap="round"/>
<line x1="15.0657" y1="24.6863" x2="15.0657" y2="19.6863" stroke="#BA3D3D" stroke-width="2" stroke-linecap="round"/>
<path d="M15.0657 24.5645V24.5645C15.0657 25.669 15.9611 26.5645 17.0657 26.5645V26.5645" stroke="#BA3D3D" stroke-width="2"/>
<path d="M15.0657 6.42334V5.42334C15.0657 4.87106 15.5134 4.42334 16.0657 4.42334H17.0657" stroke="#BA3D3D" stroke-width="2" stroke-linecap="round"/>
<line x1="28.0657" y1="24.5645" x2="28.0657" y2="6.56445" stroke="#BA3D3D" stroke-width="2" stroke-linecap="round"/>
<line x1="17.0657" y1="4.42334" x2="26.0657" y2="4.42334" stroke="#BA3D3D" stroke-width="2" stroke-linecap="round"/>
<line x1="17.0657" y1="26.5645" x2="26.0657" y2="26.5645" stroke="#BA3D3D" stroke-width="2" stroke-linecap="round"/>
<path d="M28.0657 6.42334V6.42334C28.0657 5.31877 27.1702 4.42334 26.0657 4.42334V4.42334" stroke="#BA3D3D" stroke-width="2"/>
<path d="M26.0657 26.5645V26.5645C27.1702 26.5645 28.0657 25.669 28.0657 24.5645V24.5645" stroke="#BA3D3D" stroke-width="2"/>
<line x1="5.12964" y1="15.5797" x2="9.37228" y2="11.337" stroke="#BA3D3D" stroke-width="2" stroke-linecap="round"/>
<line x1="5.13443" y1="15.5645" x2="9.37707" y2="19.8071" stroke="#BA3D3D" stroke-width="2" stroke-linecap="round"/>
</svg>
