<svg width="30" height="28" viewBox="0 0 30 28" fill="none" xmlns="http://www.w3.org/2000/svg">
<path d="M21.8333 8.6C21.8333 11.9207 18.8248 14.7 15 14.7C11.1752 14.7 8.16663 11.9207 8.16663 8.6C8.16663 5.27931 11.1752 2.5 15 2.5C18.8248 2.5 21.8333 5.27931 21.8333 8.6Z" stroke="white"/>
<path d="M4.54483 25.5C4.64218 24.9024 4.89829 24.1338 5.31466 23.2718C5.85229 22.1588 6.63399 20.9381 7.60179 19.8066C9.55204 17.5266 12.1757 15.7 15 15.7C17.8243 15.7 20.448 17.5266 22.3982 19.8066C23.366 20.9381 24.1477 22.1588 24.6853 23.2718C25.1017 24.1338 25.3578 24.9024 25.4552 25.5H25.4486H25.4222H25.3958H25.3695H25.3434H25.3173H25.2913H25.2655H25.2397H25.214H25.1884H25.1629H25.1375H25.1123H25.0871H25.062H25.0369H25.012H24.9872H24.9625H24.9378H24.9133H24.8888H24.8645H24.8402H24.816H24.7919H24.7679H24.744H24.7202H24.6964H24.6728H24.6492H24.6257H24.6023H24.579H24.5557H24.5326H24.5095H24.4866H24.4637H24.4408H24.4181H24.3954H24.3729H24.3504H24.328H24.3056H24.2834H24.2612H24.2391H24.2171H24.1951H24.1732H24.1514H24.1297H24.1081H24.0865H24.065H24.0436H24.0222H24.0009H23.9797H23.9586H23.9375H23.9165H23.8956H23.8747H23.8539H23.8332H23.8126H23.792H23.7715H23.751H23.7306H23.7103H23.69H23.6698H23.6497H23.6296H23.6096H23.5897H23.5698H23.55H23.5302H23.5105H23.4909H23.4713H23.4518H23.4324H23.4129H23.3936H23.3743H23.3551H23.3359H23.3168H23.2977H23.2787H23.2598H23.2409H23.222H23.2032H23.1845H23.1658H23.1471H23.1285H23.11H23.0915H23.0731H23.0547H23.0363H23.018H22.9998H22.9816H22.9634H22.9453H22.9273H22.9092H22.8913H22.8733H22.8554H22.8376H22.8198H22.802H22.7843H22.7666H22.749H22.7314H22.7138H22.6963H22.6788H22.6614H22.644H22.6266H22.6093H22.592H22.5747H22.5575H22.5403H22.5231H22.506H22.4889H22.4719H22.4549H22.4379H22.4209H22.404H22.3871H22.3702H22.3534H22.3365H22.3198H22.303H22.2863H22.2696H22.2529H22.2362H22.2196H22.203H22.1864H22.1699H22.1534H22.1369H22.1204H22.1039H22.0875H22.071H22.0546H22.0383H22.0219H22.0056H21.9893H21.9729H21.9567H21.9404H21.9241H21.9079H21.8917H21.8755H21.8593H21.8431H21.827H21.8108H21.7947H21.7785H21.7624H21.7463H21.7302H21.7142H21.6981H21.682H21.666H21.6499H21.6339H21.6179H21.6018H21.5858H21.5698H21.5538H21.5378H21.5218H21.5058H21.4898H21.4739H21.4579H21.4419H21.4259H21.4099H21.394H21.378H21.362H21.346H21.3301H21.3141H21.2981H21.2821H21.2661H21.2501H21.2341H21.2181H21.2021H21.1861H21.1701H21.154H21.138H21.122H21.1059H21.0899H21.0738H21.0577H21.0416H21.0255H21.0094H20.9933H20.9772H20.961H20.9449H20.9287H20.9125H20.8963H20.8801H20.8638H20.8476H20.8313H20.8151H20.7988H20.7824H20.7661H20.7498H20.7334H20.717H20.7006H20.6841H20.6677H20.6512H20.6347H20.6182H20.6016H20.5851H20.5685H20.5518H20.5352H20.5185H20.5018H20.4851H20.4684H20.4516H20.4348H20.4179H20.4011H20.3842H20.3673H20.3503H20.3333H20.3163H20.2992H20.2822H20.2651H20.2479H20.2307H20.2135H20.1963H20.179H20.1616H20.1443H20.1269H20.1094H20.092H20.0745H20.0569H20.0393H20.0217H20.004H19.9863H19.9686H19.9508H19.9329H19.9151H19.8971H19.8792H19.8612H19.8431H19.825H19.8069H19.7887H19.7704H19.7521H19.7338H19.7154H19.697H19.6785H19.66H19.6414H19.6228H19.6041H19.5854H19.5666H19.5478H19.5289H19.5099H19.4909H19.4719H19.4528H19.4336H19.4144H19.3951H19.3758H19.3564H19.3369H19.3174H19.2979H19.2783H19.2586H19.2388H19.219H19.1992H19.1792H19.1592H19.1392H19.1191H19.0989H19.0787H19.0583H19.038H19.0175H18.997H18.9765H18.9558H18.9351H18.9143H18.8935H18.8726H18.8516H18.8305H18.8094H18.7882H18.767H18.7456H18.7242H18.7027H18.6812H18.6596H18.6378H18.6161H18.5942H18.5723H18.5503H18.5282H18.506H18.4838H18.4615H18.4391H18.4166H18.3941H18.3714H18.3487H18.3259H18.303H18.2801H18.257H18.2339H18.2107H18.1874H18.164H18.1405H18.117H18.0933H18.0696H18.0458H18.0219H17.9979H17.9739H17.9497H17.9254H17.9011H17.8767H17.8521H17.8275H17.8028H17.778H17.7531H17.7281H17.703H17.6779H17.6526H17.6272H17.6018H17.5762H17.5506H17.5248H17.499H17.473H17.447H17.4208H17.3946H17.3682H17.3418H17.3152H17.2886H17.2618H17.235H17.208H17.181H17.1538H17.1265H17.0991H17.0717H17.0441H17.0164H16.9886H16.9607H16.9326H16.9045H16.8763H16.8479H16.8195H16.7909H16.7623H16.7335H16.7046H16.6756H16.6464H16.6172H16.5878H16.5584H16.5288H16.4991H16.4693H16.4394H16.4093H16.3792H16.3489H16.3185H16.288H16.2573H16.2266H16.1957H16.1647H16.1336H16.1023H16.071H16.0395H16.0079H15.9762H15.9443H15.9123H15.8802H15.848H15.8156H15.7832H15.7505H15.7178H15.6849H15.6519H15.6188H15.5856H15.5522H15.5187H15.485H15.4513H15.4173H15.3833H15.3491H15.3148H15.2804H15.2458H15.2111H15.1763H15.1413H15.1062H15.0709H15.0355H15H14.9645H14.9291H14.8939H14.8588H14.8239H14.7891H14.7545H14.7201H14.6857H14.6516H14.6175H14.5836H14.5499H14.5163H14.4829H14.4496H14.4164H14.3834H14.3505H14.3178H14.2852H14.2527H14.2204H14.1882H14.1562H14.1243H14.0925H14.0609H14.0294H13.998H13.9668H13.9357H13.9048H13.874H13.8433H13.8127H13.7823H13.752H13.7219H13.6918H13.6619H13.6322H13.6025H13.573H13.5436H13.5144H13.4852H13.4562H13.4274H13.3986H13.37H13.3414H13.3131H13.2848H13.2566H13.2286H13.2007H13.1729H13.1453H13.1177H13.0903H13.063H13.0358H13.0087H12.9817H12.9549H12.9282H12.9015H12.875H12.8486H12.8224H12.7962H12.7701H12.7442H12.7184H12.6926H12.667H12.6415H12.6161H12.5908H12.5656H12.5406H12.5156H12.4907H12.4659H12.4413H12.4167H12.3923H12.3679H12.3437H12.3195H12.2955H12.2715H12.2477H12.2239H12.2003H12.1767H12.1532H12.1299H12.1066H12.0834H12.0604H12.0374H12.0145H11.9917H11.969H11.9464H11.9238H11.9014H11.8791H11.8568H11.8347H11.8126H11.7906H11.7687H11.7469H11.7252H11.7035H11.682H11.6605H11.6391H11.6178H11.5966H11.5755H11.5544H11.5334H11.5126H11.4917H11.471H11.4504H11.4298H11.4093H11.3889H11.3685H11.3482H11.328H11.3079H11.2879H11.2679H11.248H11.2282H11.2084H11.1888H11.1691H11.1496H11.1301H11.1107H11.0914H11.0721H11.0529H11.0338H11.0147H10.9957H10.9768H10.9579H10.9391H10.9204H10.9017H10.8831H10.8645H10.846H10.8276H10.8092H10.7909H10.7727H10.7545H10.7363H10.7183H10.7002H10.6823H10.6643H10.6465H10.6287H10.6109H10.5932H10.5756H10.558H10.5405H10.523H10.5055H10.4881H10.4708H10.4535H10.4363H10.4191H10.4019H10.3848H10.3678H10.3508H10.3338H10.3169H10.3H10.2832H10.2664H10.2496H10.2329H10.2162H10.1996H10.183H10.1665H10.15H10.1335H10.117H10.1006H10.0843H10.0679H10.0517H10.0354H10.0192H10.003H9.98682H9.97069H9.95459H9.93853H9.9225H9.90649H9.89052H9.87457H9.85865H9.84276H9.8269H9.81106H9.79525H9.77947H9.76371H9.74797H9.73226H9.71657H9.7009H9.68526H9.66963H9.65403H9.63845H9.62289H9.60734H9.59182H9.57631H9.56082H9.54535H9.52989H9.51445H9.49902H9.48361H9.46821H9.45283H9.43746H9.4221H9.40675H9.39142H9.37609H9.36077H9.34547H9.33017H9.31488H9.2996H9.28433H9.26906H9.2538H9.23854H9.22329H9.20804H9.1928H9.17756H9.16232H9.14709H9.13185H9.11662H9.10139H9.08615H9.07092H9.05569H9.04045H9.02521H9.00997H8.99472H8.97947H8.96421H8.94895H8.93369H8.91841H8.90313H8.88784H8.87255H8.85724H8.84193H8.8266H8.81127H8.79592H8.78057H8.7652H8.74981H8.73442H8.71901H8.70359H8.68815H8.67269H8.65722H8.64173H8.62623H8.61071H8.59516H8.5796H8.56402H8.54842H8.5328H8.51716H8.5015H8.48581H8.4701H8.45437H8.43861H8.42283H8.40702H8.39119H8.37533H8.35945H8.34353H8.32759H8.31162H8.29562H8.27959H8.26353H8.24744H8.23132H8.21516H8.19898H8.18275H8.1665H8.15021H8.13389H8.11753H8.10113H8.0847H8.06823H8.05173H8.03518H8.0186H8.00197H7.98531H7.9686H7.95186H7.93507H7.91824H7.90137H7.88445H7.86749H7.85049H7.83344H7.81634H7.7992H7.78201H7.76478H7.74749H7.73016H7.71278H7.69534H7.67786H7.66033H7.64274H7.62511H7.60742H7.58968H7.57188H7.55403H7.53612H7.51816H7.50015H7.48207H7.46394H7.44576H7.42751H7.4092H7.39084H7.37242H7.35393H7.33538H7.31678H7.29811H7.27937H7.26058H7.24172H7.22279H7.2038H7.18475H7.16563H7.14644H7.12718H7.10786H7.08847H7.069H7.04947H7.02987H7.0102H6.99046H6.97064H6.95075H6.93079H6.91076H6.89065H6.87047H6.85021H6.82987H6.80946H6.78897H6.76841H6.74776H6.72704H6.70624H6.68536H6.66439H6.64335H6.62222H6.60102H6.57973H6.55835H6.5369H6.51536H6.49373H6.47202H6.45022H6.42833H6.40636H6.3843H6.36215H6.33992H6.31759H6.29517H6.27266H6.25006H6.22737H6.20459H6.18171H6.15874H6.13568H6.11252H6.08927H6.06592H6.04247H6.01893H5.99529H5.97155H5.94771H5.92377H5.89974H5.8756H5.85136H5.82702H5.80258H5.77804H5.75339H5.72864H5.70379H5.67883H5.65376H5.62859H5.60331H5.57792H5.55243H5.52683H5.50112H5.4753H5.44937H5.42333H5.39718H5.37091H5.34454H5.31805H5.29145H5.26473H5.2379H5.21095H5.18389H5.15671H5.12942H5.10201H5.07448H5.04683H5.01906H4.99117H4.96316H4.93504H4.90678H4.87841H4.84992H4.8213H4.79256H4.76369H4.7347H4.70559H4.67634H4.64698H4.61748H4.58786H4.55811H4.54483Z" stroke="white"/>
</svg>
