<svg width="31" height="29" viewBox="0 0 31 29" fill="none" xmlns="http://www.w3.org/2000/svg">
<path d="M15.3632 8.606C16.6472 8.606 17.6732 8.942 18.4412 9.614C19.2212 10.286 19.6112 11.234 19.6112 12.458C19.6112 13.586 19.2392 14.468 18.4952 15.104C17.7632 15.728 16.7912 16.046 15.5792 16.058L15.4892 17.408H12.7892L12.6992 14.06H13.7792C14.7032 14.06 15.4052 13.946 15.8852 13.718C16.3772 13.49 16.6232 13.076 16.6232 12.476C16.6232 12.056 16.5092 11.726 16.2812 11.486C16.0532 11.246 15.7352 11.126 15.3272 11.126C14.8952 11.126 14.5592 11.252 14.3192 11.504C14.0792 11.744 13.9592 12.074 13.9592 12.494H11.0612C11.0372 11.762 11.1872 11.102 11.5112 10.514C11.8472 9.926 12.3392 9.464 12.9872 9.128C13.6472 8.78 14.4392 8.606 15.3632 8.606ZM14.1752 22.088C13.6352 22.088 13.1912 21.932 12.8432 21.62C12.5072 21.296 12.3392 20.9 12.3392 20.432C12.3392 19.952 12.5072 19.55 12.8432 19.226C13.1912 18.902 13.6352 18.74 14.1752 18.74C14.7032 18.74 15.1352 18.902 15.4712 19.226C15.8192 19.55 15.9932 19.952 15.9932 20.432C15.9932 20.9 15.8192 21.296 15.4712 21.62C15.1352 21.932 14.7032 22.088 14.1752 22.088Z" fill="white"/>
<rect x="4.5" y="3.24402" width="20.6" height="23" rx="2.5" stroke="white"/>
</svg>
