<svg width="31" height="29" viewBox="0 0 31 29" fill="none" xmlns="http://www.w3.org/2000/svg">
<rect x="4" y="2" width="21.6" height="24" rx="3" fill="white"/>
<path d="M15.3634 7.86195C16.6474 7.86195 17.6734 8.19795 18.4414 8.86995C19.2214 9.54195 19.6114 10.49 19.6114 11.714C19.6114 12.842 19.2394 13.724 18.4954 14.36C17.7634 14.984 16.7914 15.302 15.5794 15.314L15.4894 16.664H12.7894L12.6994 13.316H13.7794C14.7034 13.316 15.4054 13.202 15.8854 12.974C16.3774 12.746 16.6234 12.332 16.6234 11.732C16.6234 11.312 16.5094 10.982 16.2814 10.742C16.0534 10.502 15.7354 10.382 15.3274 10.382C14.8954 10.382 14.5594 10.508 14.3194 10.76C14.0794 11 13.9594 11.33 13.9594 11.75H11.0614C11.0374 11.018 11.1874 10.358 11.5114 9.76995C11.8474 9.18195 12.3394 8.71995 12.9874 8.38395C13.6474 8.03595 14.4394 7.86195 15.3634 7.86195ZM14.1754 21.344C13.6354 21.344 13.1914 21.188 12.8434 20.876C12.5074 20.552 12.3394 20.156 12.3394 19.688C12.3394 19.208 12.5074 18.806 12.8434 18.482C13.1914 18.158 13.6354 17.996 14.1754 17.996C14.7034 17.996 15.1354 18.158 15.4714 18.482C15.8194 18.806 15.9934 19.208 15.9934 19.688C15.9934 20.156 15.8194 20.552 15.4714 20.876C15.1354 21.188 14.7034 21.344 14.1754 21.344Z" fill="#2A3349"/>
</svg>
