<svg width="31" height="29" viewBox="0 0 31 29" fill="none" xmlns="http://www.w3.org/2000/svg">
<path d="M20.7698 11.2394C19.6124 10.082 20.2516 10.7212 19.6124 10.082C18.9731 9.44274 19.6124 10.082 18.4549 8.92454C18.4549 8.92454 22.6098 6.55035 22.8769 6.81743C23.144 7.08451 20.7698 11.2394 20.7698 11.2394Z" fill="white"/>
<path d="M18.4553 8.92462L20.7702 11.2395L12.6385 19.015L10.6798 17.0563L18.4553 8.92462Z" fill="white"/>
<rect x="9.43335" y="15.8098" width="6.29557" height="0.671527" rx="0.335764" transform="rotate(45 9.43335 15.8098)" fill="white"/>
<rect x="10.6201" y="17.8278" width="1.67882" height="4.11311" transform="rotate(45 10.6201 17.8278)" fill="white"/>
<circle cx="8.00854" cy="21.6266" r="1.34305" transform="rotate(45 8.00854 21.6266)" fill="white"/>
<path d="M11.5064 8.88825C10.349 10.0457 10.9882 9.40645 10.349 10.0457C9.70973 10.6849 10.349 10.0457 9.19154 11.2031C9.19154 11.2031 6.81734 7.04823 7.08443 6.78114C7.35151 6.51406 11.5064 8.88825 11.5064 8.88825Z" fill="white"/>
<path d="M9.19165 11.2032L11.5065 8.8883L19.282 17.02L17.3233 18.9787L9.19165 11.2032Z" fill="white"/>
<rect x="16.0767" y="20.2251" width="6.29557" height="0.671527" rx="0.335764" transform="rotate(-45 16.0767 20.2251)" fill="white"/>
<rect x="18.095" y="19.0381" width="1.67882" height="4.11311" transform="rotate(-45 18.095 19.0381)" fill="white"/>
<circle cx="21.894" cy="21.6496" r="1.34305" transform="rotate(-45 21.894 21.6496)" fill="white"/>
<circle cx="15" cy="14.744" r="12.5" stroke="white"/>
</svg>
