<svg width="31" height="29" viewBox="0 0 31 29" fill="none" xmlns="http://www.w3.org/2000/svg">
<circle cx="15" cy="14" r="13" fill="white"/>
<path d="M20.7698 10.4954C19.6124 9.33798 20.2516 9.97721 19.6124 9.33798C18.9731 8.69875 19.6124 9.33798 18.4549 8.18055C18.4549 8.18055 22.6098 5.80636 22.8769 6.07344C23.144 6.34053 20.7698 10.4954 20.7698 10.4954Z" fill="#2A3349"/>
<path d="M18.4553 8.18066L20.7702 10.4955L12.6385 18.271L10.6798 16.3123L18.4553 8.18066Z" fill="#2A3349"/>
<rect x="9.43335" y="15.0658" width="6.29557" height="0.671527" rx="0.335764" transform="rotate(45 9.43335 15.0658)" fill="#2A3349"/>
<rect x="10.6201" y="17.0837" width="1.67882" height="4.11311" transform="rotate(45 10.6201 17.0837)" fill="#2A3349"/>
<circle cx="8.00854" cy="20.8825" r="1.34305" transform="rotate(45 8.00854 20.8825)" fill="#2A3349"/>
<path d="M11.5064 8.14414C10.349 9.30157 10.9882 8.66234 10.349 9.30157C9.70973 9.9408 10.349 9.30157 9.19154 10.459C9.19154 10.459 6.81734 6.30412 7.08443 6.03703C7.35151 5.76995 11.5064 8.14414 11.5064 8.14414Z" fill="#2A3349"/>
<path d="M9.19165 10.4591L11.5065 8.14425L19.282 16.2759L17.3233 18.2346L9.19165 10.4591Z" fill="#2A3349"/>
<rect x="16.0767" y="19.4811" width="6.29557" height="0.671527" rx="0.335764" transform="rotate(-45 16.0767 19.4811)" fill="#2A3349"/>
<rect x="18.0002" y="18.1871" width="1.67882" height="4.11311" transform="rotate(-45 18.0002 18.1871)" fill="#2A3349"/>
<circle cx="21.894" cy="20.9055" r="1.34305" transform="rotate(-45 21.894 20.9055)" fill="#2A3349"/>
</svg>
